<?xml version="1.0" encoding="UTF-8"?>
<svg id="Layer_2" data-name="Layer 2" xmlns="http://www.w3.org/2000/svg" viewBox="0 0 62.67 84.35">
  <defs>
    <style>
      .cls-1 {
        fill: #2c0947;
      }

      .cls-1, .cls-2, .cls-3, .cls-4, .cls-5, .cls-6, .cls-7, .cls-8 {
        stroke-width: 0px;
      }

      .cls-2 {
        fill: #c5cad1;
      }

      .cls-3 {
        fill: #747c8c;
      }

      .cls-4 {
        fill: #d13667;
      }

      .cls-5 {
        fill: #190526;
      }

      .cls-6 {
        fill: #3a58ac;
      }

      .cls-7 {
        fill: #341d6e;
      }

      .cls-8 {
        fill: #090111;
      }
    </style>
  </defs>
  <g id="Layer_1-2" data-name="Layer 1">
    <g>
      <polygon class="cls-8" points="62.67 15.42 62.67 25.53 58.06 25.53 58.06 28.08 39.1 28.08 36.8 28.08 34.5 28.08 34.5 25.53 32.2 25.53 32.2 28.08 29.9 28.08 27.6 28.08 27.6 30.63 25.3 30.63 23 30.63 23 33.19 20.7 33.19 20.7 30.63 18.4 30.63 18.4 28.08 18.4 25.53 18.4 22.97 18.4 20.42 18.4 17.87 20.7 17.87 23 17.87 25.3 17.87 27.6 17.87 29.9 17.87 32.2 17.87 34.5 17.87 36.8 17.87 39.1 17.87 41.4 17.87 43.7 17.87 43.7 15.32 46 15.32 48.3 15.32 48.3 12.77 48.3 10.21 48.3 7.66 48.3 5.11 48.3 2.55 62.67 15.42"/>
      <polygon class="cls-8" points="55.77 48.51 55.77 51.06 53.46 51.06 53.46 53.61 51.17 53.61 51.17 56.17 48.87 56.17 48.87 53.61 39.67 53.61 39.67 56.17 37.36 56.17 35.07 56.17 32.77 56.17 32.77 81.8 28.17 81.8 28.17 84.35 25.87 84.35 25.87 81.8 23.57 81.8 23.57 84.35 21.27 84.35 21.27 81.8 17.22 81.8 2.85 68.93 4.6 68.93 6.9 68.93 6.9 71.49 9.2 71.49 9.2 68.93 11.5 68.93 11.5 71.49 13.8 71.49 13.8 68.93 16.1 68.93 18.4 68.93 18.4 66.38 18.4 63.83 18.4 61.27 18.4 58.72 18.4 56.17 18.4 53.61 18.4 51.06 18.4 48.51 18.4 45.95 20.7 45.95 23 45.95 25.3 45.95 27.6 45.95 27.6 43.4 29.9 43.4 32.2 43.4 34.5 43.4 36.8 43.4 36.8 45.95 39.1 45.95 39.1 43.4 41.4 43.4 41.4 40.85 43.7 40.85 43.7 38.29 43.7 35.74 41.4 35.74 41.4 33.19 41.4 30.63 39.1 30.63 39.1 28.08 53.46 40.95 53.46 45.95 55.77 45.95 55.77 48.51"/>
      <rect class="cls-5" x="46" y="12.77" width="2.3" height="2.55"/>
      <rect class="cls-5" x="46" y="10.21" width="2.3" height="2.55"/>
      <rect class="cls-5" x="46" y="7.66" width="2.3" height="2.55"/>
      <rect class="cls-1" x="46" y="5.11" width="2.3" height="2.55"/>
      <polygon class="cls-7" points="48.3 2.55 48.3 5.11 46 5.11 46 3.03 48.3 2.55"/>
      <polygon class="cls-7" points="48.3 2.55 46 3.03 46 2.55 48.3 2.55"/>
      <rect class="cls-5" x="43.7" y="12.77" width="2.3" height="2.55"/>
      <rect class="cls-1" x="43.7" y="10.21" width="2.3" height="2.55"/>
      <rect class="cls-1" x="43.7" y="7.66" width="2.3" height="2.55"/>
      <rect class="cls-4" x="43.7" y="5.11" width="2.3" height="2.55"/>
      <polygon class="cls-7" points="46 3.03 46 5.11 43.7 5.11 43.7 3.51 46 3.03"/>
      <polygon class="cls-7" points="46 2.55 46 3.03 43.7 3.51 43.7 2.55 46 2.55"/>
      <rect class="cls-4" x="41.4" y="38.29" width="2.3" height="2.55"/>
      <rect class="cls-5" x="41.4" y="35.74" width="2.3" height="2.55"/>
      <rect class="cls-5" x="41.4" y="15.32" width="2.3" height="2.55"/>
      <rect class="cls-5" x="41.4" y="12.77" width="2.3" height="2.55"/>
      <rect class="cls-1" x="41.4" y="10.21" width="2.3" height="2.55"/>
      <rect class="cls-4" x="41.4" y="7.66" width="2.3" height="2.55"/>
      <rect class="cls-7" x="41.4" y="5.11" width="2.3" height="2.55"/>
      <polygon class="cls-4" points="43.7 3.51 43.7 5.11 41.4 5.11 41.4 3.99 43.7 3.51"/>
      <polygon class="cls-4" points="43.7 2.55 43.7 3.51 41.4 3.99 41.4 2.55 43.7 2.55"/>
      <rect class="cls-4" x="39.1" y="40.85" width="2.3" height="2.55"/>
      <rect class="cls-5" x="39.1" y="38.29" width="2.3" height="2.55"/>
      <rect class="cls-4" x="39.1" y="35.74" width="2.3" height="2.55"/>
      <rect class="cls-1" x="39.1" y="33.19" width="2.3" height="2.55"/>
      <rect class="cls-1" x="39.1" y="30.63" width="2.3" height="2.55"/>
      <rect class="cls-1" x="39.1" y="15.32" width="2.3" height="2.55"/>
      <rect class="cls-1" x="39.1" y="12.77" width="2.3" height="2.55"/>
      <rect class="cls-1" x="39.1" y="10.21" width="2.3" height="2.55"/>
      <rect class="cls-5" x="39.1" y="7.66" width="2.3" height="2.55"/>
      <rect class="cls-7" x="39.1" y="5.11" width="2.3" height="2.55"/>
      <polygon class="cls-7" points="41.4 3.99 41.4 5.11 39.1 5.11 39.1 4.47 41.4 3.99"/>
      <polygon class="cls-7" points="41.4 2.55 41.4 3.99 39.1 4.47 39.1 2.55 41.4 2.55"/>
      <rect class="cls-4" x="36.8" y="43.4" width="2.3" height="2.55"/>
      <rect class="cls-5" x="36.8" y="40.85" width="2.3" height="2.55"/>
      <rect class="cls-4" x="36.8" y="38.29" width="2.3" height="2.55"/>
      <rect class="cls-5" x="36.8" y="35.74" width="2.3" height="2.55"/>
      <rect class="cls-4" x="36.8" y="33.19" width="2.3" height="2.55"/>
      <rect class="cls-4" x="36.8" y="30.63" width="2.3" height="2.55"/>
      <rect class="cls-3" x="36.8" y="28.08" width="2.3" height="2.55"/>
      <rect class="cls-5" x="36.8" y="15.32" width="2.3" height="2.55"/>
      <rect class="cls-5" x="36.8" y="12.77" width="2.3" height="2.55"/>
      <rect class="cls-4" x="36.8" y="10.21" width="2.3" height="2.55"/>
      <rect class="cls-7" x="36.8" y="7.66" width="2.3" height="2.55"/>
      <rect class="cls-7" x="36.8" y="5.11" width="2.3" height="2.55"/>
      <polygon class="cls-4" points="39.1 4.47 39.1 5.11 36.8 5.11 36.8 4.95 39.1 4.47"/>
      <polygon class="cls-4" points="39.1 2.55 39.1 4.47 36.8 4.95 36.8 2.55 39.1 2.55"/>
      <rect class="cls-4" x="34.5" y="40.85" width="2.3" height="2.55"/>
      <rect class="cls-5" x="34.5" y="38.29" width="2.3" height="2.55"/>
      <rect class="cls-1" x="34.5" y="35.74" width="2.3" height="2.55"/>
      <rect class="cls-7" x="34.5" y="33.19" width="2.3" height="2.55"/>
      <rect class="cls-3" x="34.5" y="30.63" width="2.3" height="2.55"/>
      <rect class="cls-6" x="34.5" y="28.08" width="2.3" height="2.55"/>
      <rect class="cls-4" x="34.5" y="15.32" width="2.3" height="2.55"/>
      <rect class="cls-4" x="34.5" y="12.77" width="2.3" height="2.55"/>
      <rect class="cls-6" x="34.5" y="10.21" width="2.3" height="2.55"/>
      <rect class="cls-4" x="34.5" y="7.66" width="2.3" height="2.55"/>
      <polygon class="cls-6" points="36.8 5.11 36.8 7.66 34.5 7.66 34.5 5.43 36.03 5.11 36.8 5.11"/>
      <polygon class="cls-6" points="36.8 4.95 36.8 5.11 36.03 5.11 36.8 4.95"/>
      <polygon class="cls-6" points="36.8 2.55 36.8 4.95 36.03 5.11 34.5 5.11 34.5 2.55 36.8 2.55"/>
      <polygon class="cls-6" points="36.03 5.11 34.5 5.43 34.5 5.11 36.03 5.11"/>
      <rect class="cls-5" x="32.2" y="40.85" width="2.3" height="2.55"/>
      <rect class="cls-4" x="32.2" y="38.29" width="2.3" height="2.55"/>
      <rect class="cls-4" x="32.2" y="35.74" width="2.3" height="2.55"/>
      <rect class="cls-7" x="32.2" y="33.19" width="2.3" height="2.55"/>
      <rect class="cls-2" x="32.2" y="30.63" width="2.3" height="2.55"/>
      <rect class="cls-2" x="32.2" y="28.08" width="2.3" height="2.55"/>
      <rect class="cls-6" x="32.2" y="25.53" width="2.3" height="2.55"/>
      <rect class="cls-4" x="32.2" y="15.32" width="2.3" height="2.55"/>
      <rect class="cls-4" x="32.2" y="12.77" width="2.3" height="2.55"/>
      <rect class="cls-4" x="32.2" y="10.21" width="2.3" height="2.55"/>
      <rect class="cls-4" x="32.2" y="7.66" width="2.3" height="2.55"/>
      <polygon class="cls-6" points="34.5 5.43 34.5 7.66 32.2 7.66 32.2 5.9 34.5 5.43"/>
      <polygon class="cls-6" points="34.5 5.11 34.5 5.43 32.2 5.9 32.2 5.11 34.5 5.11"/>
      <rect class="cls-4" x="32.2" y="2.55" width="2.3" height="2.55"/>
      <rect class="cls-4" x="29.9" y="40.85" width="2.3" height="2.55"/>
      <rect class="cls-5" x="29.9" y="38.29" width="2.3" height="2.55"/>
      <rect class="cls-1" x="29.9" y="35.74" width="2.3" height="2.55"/>
      <rect class="cls-2" x="29.9" y="33.19" width="2.3" height="2.55"/>
      <rect class="cls-6" x="29.9" y="30.63" width="2.3" height="2.55"/>
      <rect class="cls-2" x="29.9" y="28.08" width="2.3" height="2.55"/>
      <rect class="cls-1" x="29.9" y="15.32" width="2.3" height="2.55"/>
      <rect class="cls-6" x="29.9" y="12.77" width="2.3" height="2.55"/>
      <rect class="cls-3" x="29.9" y="10.21" width="2.3" height="2.55"/>
      <rect class="cls-2" x="29.9" y="7.66" width="2.3" height="2.55"/>
      <polygon class="cls-2" points="32.2 5.9 32.2 7.66 29.9 7.66 29.9 6.39 32.2 5.9"/>
      <polygon class="cls-2" points="32.2 5.11 32.2 5.9 29.9 6.39 29.9 5.11 32.2 5.11"/>
      <rect class="cls-6" x="29.9" y="2.55" width="2.3" height="2.55"/>
      <rect class="cls-3" x="29.9" width="2.3" height="2.55"/>
      <rect class="cls-5" x="27.6" y="40.85" width="2.3" height="2.55"/>
      <rect class="cls-1" x="27.6" y="38.29" width="2.3" height="2.55"/>
      <rect class="cls-1" x="27.6" y="35.74" width="2.3" height="2.55"/>
      <rect class="cls-6" x="27.6" y="33.19" width="2.3" height="2.55"/>
      <rect class="cls-2" x="27.6" y="30.63" width="2.3" height="2.55"/>
      <rect class="cls-6" x="27.6" y="28.08" width="2.3" height="2.55"/>
      <rect class="cls-1" x="27.6" y="15.32" width="2.3" height="2.55"/>
      <rect class="cls-2" x="27.6" y="12.77" width="2.3" height="2.55"/>
      <rect class="cls-6" x="27.6" y="10.21" width="2.3" height="2.55"/>
      <rect class="cls-6" x="27.6" y="7.66" width="2.3" height="2.55"/>
      <polygon class="cls-7" points="29.9 6.39 29.9 7.66 27.6 7.66 27.6 6.86 29.9 6.39"/>
      <polygon class="cls-7" points="29.9 5.11 29.9 6.39 27.6 6.86 27.6 5.11 29.9 5.11"/>
      <rect class="cls-6" x="27.6" y="2.55" width="2.3" height="2.55"/>
      <rect class="cls-2" x="27.6" width="2.3" height="2.55"/>
      <rect class="cls-1" x="25.3" y="43.4" width="2.3" height="2.55"/>
      <rect class="cls-1" x="25.3" y="40.85" width="2.3" height="2.55"/>
      <rect class="cls-5" x="25.3" y="38.29" width="2.3" height="2.55"/>
      <rect class="cls-4" x="25.3" y="35.74" width="2.3" height="2.55"/>
      <rect class="cls-4" x="25.3" y="33.19" width="2.3" height="2.55"/>
      <rect class="cls-3" x="25.3" y="30.63" width="2.3" height="2.55"/>
      <rect class="cls-1" x="25.3" y="15.32" width="2.3" height="2.55"/>
      <rect class="cls-4" x="25.3" y="12.77" width="2.3" height="2.55"/>
      <rect class="cls-2" x="25.3" y="10.21" width="2.3" height="2.55"/>
      <rect class="cls-2" x="25.3" y="7.66" width="2.3" height="2.55"/>
      <polygon class="cls-6" points="27.6 6.86 27.6 7.66 25.3 7.66 25.3 7.34 27.6 6.86"/>
      <polygon class="cls-6" points="27.6 5.11 27.6 6.86 25.3 7.34 25.3 5.11 27.6 5.11"/>
      <rect class="cls-6" x="25.3" y="2.55" width="2.3" height="2.55"/>
      <rect class="cls-5" x="23" y="43.4" width="2.3" height="2.55"/>
      <rect class="cls-4" x="23" y="40.85" width="2.3" height="2.55"/>
      <rect class="cls-4" x="23" y="38.29" width="2.3" height="2.55"/>
      <rect class="cls-6" x="23" y="35.74" width="2.3" height="2.55"/>
      <rect class="cls-2" x="23" y="33.19" width="2.3" height="2.55"/>
      <rect class="cls-2" x="23" y="30.63" width="2.3" height="2.55"/>
      <rect class="cls-1" x="23" y="15.32" width="2.3" height="2.55"/>
      <rect class="cls-6" x="23" y="12.77" width="2.3" height="2.55"/>
      <rect class="cls-6" x="23" y="10.21" width="2.3" height="2.55"/>
      <polygon class="cls-6" points="25.3 7.66 25.3 10.21 23 10.21 23 7.82 23.77 7.66 25.3 7.66"/>
      <polygon class="cls-2" points="25.3 7.34 25.3 7.66 23.77 7.66 25.3 7.34"/>
      <polygon class="cls-2" points="25.3 5.11 25.3 7.34 23.77 7.66 23 7.66 23 5.11 25.3 5.11"/>
      <rect class="cls-3" x="23" y="2.55" width="2.3" height="2.55"/>
      <polygon class="cls-6" points="23.77 7.66 23 7.82 23 7.66 23.77 7.66"/>
      <rect class="cls-1" x="20.7" y="43.4" width="2.3" height="2.55"/>
      <rect class="cls-4" x="20.7" y="40.85" width="2.3" height="2.55"/>
      <rect class="cls-6" x="20.7" y="38.29" width="2.3" height="2.55"/>
      <rect class="cls-2" x="20.7" y="35.74" width="2.3" height="2.55"/>
      <rect class="cls-7" x="20.7" y="33.19" width="2.3" height="2.55"/>
      <rect class="cls-1" x="20.7" y="15.32" width="2.3" height="2.55"/>
      <rect class="cls-6" x="20.7" y="12.77" width="2.3" height="2.55"/>
      <rect class="cls-2" x="20.7" y="10.21" width="2.3" height="2.55"/>
      <polygon class="cls-2" points="23 7.82 23 10.21 20.7 10.21 20.7 8.3 23 7.82"/>
      <polygon class="cls-2" points="23 7.66 23 7.82 20.7 8.3 20.7 7.66 23 7.66"/>
      <rect class="cls-6" x="20.7" y="5.11" width="2.3" height="2.55"/>
      <rect class="cls-4" x="18.4" y="43.4" width="2.3" height="2.55"/>
      <rect class="cls-1" x="18.4" y="40.85" width="2.3" height="2.55"/>
      <rect class="cls-7" x="18.4" y="38.29" width="2.3" height="2.55"/>
      <rect class="cls-3" x="18.4" y="35.74" width="2.3" height="2.55"/>
      <rect class="cls-7" x="18.4" y="33.19" width="2.3" height="2.55"/>
      <rect class="cls-2" x="18.4" y="30.63" width="2.3" height="2.55"/>
      <rect class="cls-4" x="18.4" y="15.32" width="2.3" height="2.55"/>
      <rect class="cls-4" x="18.4" y="12.77" width="2.3" height="2.55"/>
      <rect class="cls-3" x="18.4" y="10.21" width="2.3" height="2.55"/>
      <polygon class="cls-2" points="20.7 8.3 20.7 10.21 18.4 10.21 18.4 8.78 20.7 8.3"/>
      <polygon class="cls-2" points="20.7 7.66 20.7 8.3 18.4 8.78 18.4 7.66 20.7 7.66"/>
      <rect class="cls-6" x="18.4" y="5.11" width="2.3" height="2.55"/>
      <rect class="cls-2" x="18.4" y="2.55" width="2.3" height="2.55"/>
      <rect class="cls-2" x="18.4" width="2.3" height="2.55"/>
      <rect class="cls-5" x="16.1" y="66.38" width="2.3" height="2.55"/>
      <rect class="cls-1" x="16.1" y="63.83" width="2.3" height="2.55"/>
      <rect class="cls-1" x="16.1" y="61.27" width="2.3" height="2.55"/>
      <rect class="cls-1" x="16.1" y="58.72" width="2.3" height="2.55"/>
      <rect class="cls-4" x="16.1" y="56.17" width="2.3" height="2.55"/>
      <rect class="cls-1" x="16.1" y="53.61" width="2.3" height="2.55"/>
      <rect class="cls-4" x="16.1" y="51.06" width="2.3" height="2.55"/>
      <rect class="cls-1" x="16.1" y="48.51" width="2.3" height="2.55"/>
      <rect class="cls-4" x="16.1" y="45.95" width="2.3" height="2.55"/>
      <rect class="cls-1" x="16.1" y="43.4" width="2.3" height="2.55"/>
      <rect class="cls-4" x="16.1" y="40.85" width="2.3" height="2.55"/>
      <rect class="cls-2" x="16.1" y="38.29" width="2.3" height="2.55"/>
      <rect class="cls-7" x="16.1" y="35.74" width="2.3" height="2.55"/>
      <rect class="cls-7" x="16.1" y="33.19" width="2.3" height="2.55"/>
      <rect class="cls-3" x="16.1" y="30.63" width="2.3" height="2.55"/>
      <rect class="cls-2" x="16.1" y="28.08" width="2.3" height="2.55"/>
      <rect class="cls-5" x="16.1" y="25.53" width="2.3" height="2.55"/>
      <rect class="cls-3" x="16.1" y="22.97" width="2.3" height="2.55"/>
      <rect class="cls-2" x="16.1" y="20.42" width="2.3" height="2.55"/>
      <rect class="cls-4" x="16.1" y="17.87" width="2.3" height="2.55"/>
      <rect class="cls-6" x="16.1" y="15.32" width="2.3" height="2.55"/>
      <rect class="cls-2" x="16.1" y="12.77" width="2.3" height="2.55"/>
      <rect class="cls-7" x="16.1" y="10.21" width="2.3" height="2.55"/>
      <polygon class="cls-2" points="18.4 8.78 18.4 10.21 16.1 10.21 16.1 9.25 18.4 8.78"/>
      <polygon class="cls-2" points="18.4 7.66 18.4 8.78 16.1 9.25 16.1 7.66 18.4 7.66"/>
      <rect class="cls-2" x="16.1" y="5.11" width="2.3" height="2.55"/>
      <rect class="cls-3" x="16.1" y="2.55" width="2.3" height="2.55"/>
      <rect class="cls-1" x="13.8" y="66.38" width="2.3" height="2.55"/>
      <rect class="cls-1" x="13.8" y="63.83" width="2.3" height="2.55"/>
      <rect class="cls-1" x="13.8" y="61.27" width="2.3" height="2.55"/>
      <rect class="cls-5" x="13.8" y="58.72" width="2.3" height="2.55"/>
      <rect class="cls-1" x="13.8" y="56.17" width="2.3" height="2.55"/>
      <rect class="cls-4" x="13.8" y="53.61" width="2.3" height="2.55"/>
      <rect class="cls-1" x="13.8" y="51.06" width="2.3" height="2.55"/>
      <rect class="cls-1" x="13.8" y="48.51" width="2.3" height="2.55"/>
      <rect class="cls-1" x="13.8" y="45.95" width="2.3" height="2.55"/>
      <rect class="cls-2" x="13.8" y="43.4" width="2.3" height="2.55"/>
      <rect class="cls-3" x="13.8" y="40.85" width="2.3" height="2.55"/>
      <rect class="cls-4" x="13.8" y="38.29" width="2.3" height="2.55"/>
      <rect class="cls-7" x="13.8" y="35.74" width="2.3" height="2.55"/>
      <rect class="cls-4" x="13.8" y="33.19" width="2.3" height="2.55"/>
      <rect class="cls-5" x="13.8" y="30.63" width="2.3" height="2.55"/>
      <rect class="cls-7" x="13.8" y="28.08" width="2.3" height="2.55"/>
      <rect class="cls-4" x="13.8" y="25.53" width="2.3" height="2.55"/>
      <rect class="cls-5" x="13.8" y="22.97" width="2.3" height="2.55"/>
      <rect class="cls-4" x="13.8" y="20.42" width="2.3" height="2.55"/>
      <rect class="cls-2" x="13.8" y="17.87" width="2.3" height="2.55"/>
      <rect class="cls-2" x="13.8" y="15.32" width="2.3" height="2.55"/>
      <rect class="cls-3" x="13.8" y="12.77" width="2.3" height="2.55"/>
      <rect class="cls-2" x="13.8" y="10.21" width="2.3" height="2.55"/>
      <polygon class="cls-2" points="16.1 9.25 16.1 10.21 13.8 10.21 13.8 9.74 16.1 9.25"/>
      <polygon class="cls-2" points="16.1 7.66 16.1 9.25 13.8 9.74 13.8 7.66 16.1 7.66"/>
      <rect class="cls-5" x="11.5" y="68.93" width="2.3" height="2.55"/>
      <rect class="cls-5" x="11.5" y="66.38" width="2.3" height="2.55"/>
      <rect class="cls-5" x="11.5" y="63.83" width="2.3" height="2.55"/>
      <rect class="cls-5" x="11.5" y="61.27" width="2.3" height="2.55"/>
      <rect class="cls-1" x="11.5" y="58.72" width="2.3" height="2.55"/>
      <rect class="cls-1" x="11.5" y="56.17" width="2.3" height="2.55"/>
      <rect class="cls-7" x="11.5" y="53.61" width="2.3" height="2.55"/>
      <rect class="cls-1" x="11.5" y="51.06" width="2.3" height="2.55"/>
      <rect class="cls-4" x="11.5" y="48.51" width="2.3" height="2.55"/>
      <rect class="cls-1" x="11.5" y="45.95" width="2.3" height="2.55"/>
      <rect class="cls-5" x="11.5" y="43.4" width="2.3" height="2.55"/>
      <rect class="cls-4" x="11.5" y="40.85" width="2.3" height="2.55"/>
      <rect class="cls-6" x="11.5" y="38.29" width="2.3" height="2.55"/>
      <rect class="cls-2" x="11.5" y="35.74" width="2.3" height="2.55"/>
      <rect class="cls-7" x="11.5" y="33.19" width="2.3" height="2.55"/>
      <rect class="cls-4" x="11.5" y="30.63" width="2.3" height="2.55"/>
      <rect class="cls-5" x="11.5" y="28.08" width="2.3" height="2.55"/>
      <rect class="cls-4" x="11.5" y="25.53" width="2.3" height="2.55"/>
      <rect class="cls-6" x="11.5" y="22.97" width="2.3" height="2.55"/>
      <rect class="cls-2" x="11.5" y="20.42" width="2.3" height="2.55"/>
      <rect class="cls-2" x="11.5" y="17.87" width="2.3" height="2.55"/>
      <rect class="cls-6" x="11.5" y="15.32" width="2.3" height="2.55"/>
      <rect class="cls-6" x="11.5" y="12.77" width="2.3" height="2.55"/>
      <rect class="cls-6" x="11.5" y="10.21" width="2.3" height="2.55"/>
      <polygon class="cls-2" points="13.8 9.74 13.8 10.21 11.5 10.21 13.8 9.74"/>
      <polygon class="cls-2" points="13.8 7.66 13.8 9.74 11.5 10.21 11.5 7.66 13.8 7.66"/>
      <rect class="cls-2" x="11.5" y="5.11" width="2.3" height="2.55"/>
      <rect class="cls-1" x="9.2" y="66.38" width="2.3" height="2.55"/>
      <rect class="cls-4" x="9.2" y="63.83" width="2.3" height="2.55"/>
      <rect class="cls-4" x="9.2" y="61.27" width="2.3" height="2.55"/>
      <polygon class="cls-1" points="11.5 58.72 11.5 61.27 9.2 61.27 9.31 58.72 11.5 58.72"/>
      <polygon class="cls-1" points="11.5 56.17 11.5 58.72 9.31 58.72 9.43 56.17 11.5 56.17"/>
      <polygon class="cls-1" points="11.5 53.61 11.5 56.17 9.43 56.17 9.55 53.61 11.5 53.61"/>
      <polygon class="cls-4" points="11.5 51.06 11.5 53.61 9.55 53.61 9.66 51.06 11.5 51.06"/>
      <polygon class="cls-1" points="11.5 48.51 11.5 51.06 9.66 51.06 9.78 48.51 11.5 48.51"/>
      <polygon class="cls-4" points="11.5 45.95 11.5 48.51 9.78 48.51 9.89 45.95 11.5 45.95"/>
      <polygon class="cls-7" points="11.5 43.4 11.5 45.95 9.89 45.95 10 43.4 11.5 43.4"/>
      <polygon class="cls-5" points="11.5 40.85 11.5 43.4 10 43.4 10.12 40.85 11.5 40.85"/>
      <polygon class="cls-2" points="11.5 38.29 11.5 40.85 10.12 40.85 10.24 38.29 11.5 38.29"/>
      <polygon class="cls-7" points="11.5 35.74 11.5 38.29 10.24 38.29 10.36 35.74 11.5 35.74"/>
      <polygon class="cls-6" points="11.5 33.19 11.5 35.74 10.36 35.74 10.47 33.19 11.5 33.19"/>
      <polygon class="cls-2" points="11.5 30.63 11.5 33.19 10.47 33.19 10.58 30.63 11.5 30.63"/>
      <polygon class="cls-6" points="11.5 28.08 11.5 30.63 10.58 30.63 10.7 28.08 11.5 28.08"/>
      <polygon class="cls-7" points="11.5 25.53 11.5 28.08 10.7 28.08 10.81 25.53 11.5 25.53"/>
      <polygon class="cls-6" points="11.5 22.97 11.5 25.53 10.81 25.53 10.93 22.97 11.5 22.97"/>
      <polygon class="cls-6" points="11.5 20.42 11.5 22.97 10.93 22.97 11.05 20.42 11.5 20.42"/>
      <polygon class="cls-6" points="11.5 17.87 11.5 20.42 11.05 20.42 11.16 17.87 11.5 17.87"/>
      <polygon class="cls-6" points="11.5 15.32 11.5 17.87 11.16 17.87 11.27 15.32 11.5 15.32"/>
      <polygon class="cls-4" points="11.5 12.77 11.5 15.32 11.27 15.32 11.39 12.77 11.5 12.77"/>
      <polygon class="cls-6" points="11.5 10.21 11.5 12.77 11.39 12.77 11.5 10.21"/>
      <rect class="cls-6" x="9.2" y="7.66" width="2.3" height="2.55"/>
      <rect class="cls-6" x="9.2" y="5.11" width="2.3" height="2.55"/>
      <polygon class="cls-6" points="11.5 10.21 11.39 12.77 9.2 12.77 9.2 10.21 11.5 10.21"/>
      <polygon class="cls-4" points="11.39 12.77 11.27 15.32 9.2 15.32 9.2 12.77 11.39 12.77"/>
      <polygon class="cls-6" points="11.27 15.32 11.16 17.87 9.2 17.87 9.2 15.32 11.27 15.32"/>
      <polygon class="cls-6" points="11.16 17.87 11.05 20.42 9.2 20.42 9.2 17.87 11.16 17.87"/>
      <polygon class="cls-6" points="11.05 20.42 10.93 22.97 9.2 22.97 9.2 20.42 11.05 20.42"/>
      <polygon class="cls-6" points="10.93 22.97 10.81 25.53 9.2 25.53 9.2 22.97 10.93 22.97"/>
      <polygon class="cls-7" points="10.81 25.53 10.7 28.08 9.2 28.08 9.2 25.53 10.81 25.53"/>
      <polygon class="cls-6" points="10.7 28.08 10.58 30.63 9.2 30.63 9.2 28.08 10.7 28.08"/>
      <polygon class="cls-2" points="10.58 30.63 10.47 33.19 9.2 33.19 9.2 30.63 10.58 30.63"/>
      <polygon class="cls-6" points="10.47 33.19 10.36 35.74 9.2 35.74 9.2 33.19 10.47 33.19"/>
      <polygon class="cls-7" points="10.36 35.74 10.24 38.29 9.2 38.29 9.2 35.74 10.36 35.74"/>
      <polygon class="cls-2" points="10.24 38.29 10.12 40.85 9.2 40.85 9.2 38.29 10.24 38.29"/>
      <polygon class="cls-5" points="10.12 40.85 10 43.4 9.2 43.4 9.2 40.85 10.12 40.85"/>
      <polygon class="cls-7" points="10 43.4 9.89 45.95 9.2 45.95 9.2 43.4 10 43.4"/>
      <polygon class="cls-4" points="9.89 45.95 9.78 48.51 9.2 48.51 9.2 45.95 9.89 45.95"/>
      <polygon class="cls-1" points="9.78 48.51 9.66 51.06 9.2 51.06 9.2 48.51 9.78 48.51"/>
      <polygon class="cls-4" points="9.66 51.06 9.55 53.61 9.2 53.61 9.2 51.06 9.66 51.06"/>
      <polygon class="cls-1" points="9.55 53.61 9.43 56.17 9.2 56.17 9.2 53.61 9.55 53.61"/>
      <polygon class="cls-1" points="9.43 56.17 9.31 58.72 9.2 58.72 9.2 56.17 9.43 56.17"/>
      <polygon class="cls-1" points="9.31 58.72 9.2 61.27 9.2 58.72 9.31 58.72"/>
      <rect class="cls-5" x="6.9" y="68.93" width="2.3" height="2.55"/>
      <rect class="cls-4" x="6.9" y="66.38" width="2.3" height="2.55"/>
      <rect class="cls-5" x="6.9" y="63.83" width="2.3" height="2.55"/>
      <polygon class="cls-1" points="9.2 61.27 9.2 63.83 6.9 63.83 6.9 62.55 9.2 61.27"/>
      <rect class="cls-1" x="6.9" y="58.72" width="2.3" height="2.55"/>
      <rect class="cls-5" x="6.9" y="56.17" width="2.3" height="2.55"/>
      <rect class="cls-4" x="6.9" y="53.61" width="2.3" height="2.55"/>
      <rect class="cls-4" x="6.9" y="51.06" width="2.3" height="2.55"/>
      <rect class="cls-4" x="6.9" y="48.51" width="2.3" height="2.55"/>
      <rect class="cls-1" x="6.9" y="45.95" width="2.3" height="2.55"/>
      <rect class="cls-4" x="6.9" y="43.4" width="2.3" height="2.55"/>
      <rect class="cls-7" x="6.9" y="40.85" width="2.3" height="2.55"/>
      <rect class="cls-7" x="6.9" y="38.29" width="2.3" height="2.55"/>
      <rect class="cls-7" x="6.9" y="35.74" width="2.3" height="2.55"/>
      <rect class="cls-6" x="6.9" y="33.19" width="2.3" height="2.55"/>
      <rect class="cls-6" x="6.9" y="30.63" width="2.3" height="2.55"/>
      <rect class="cls-6" x="6.9" y="28.08" width="2.3" height="2.55"/>
      <rect class="cls-4" x="6.9" y="25.53" width="2.3" height="2.55"/>
      <rect class="cls-6" x="6.9" y="22.97" width="2.3" height="2.55"/>
      <rect class="cls-7" x="6.9" y="20.42" width="2.3" height="2.55"/>
      <rect class="cls-6" x="6.9" y="17.87" width="2.3" height="2.55"/>
      <rect class="cls-2" x="6.9" y="15.32" width="2.3" height="2.55"/>
      <rect class="cls-2" x="6.9" y="12.77" width="2.3" height="2.55"/>
      <rect class="cls-6" x="6.9" y="10.21" width="2.3" height="2.55"/>
      <rect class="cls-6" x="6.9" y="7.66" width="2.3" height="2.55"/>
      <rect class="cls-6" x="6.9" y="5.11" width="2.3" height="2.55"/>
      <polygon class="cls-1" points="9.2 61.27 6.9 62.55 6.9 61.27 9.2 61.27"/>
      <rect class="cls-5" x="4.6" y="66.38" width="2.3" height="2.55"/>
      <rect class="cls-1" x="4.6" y="63.83" width="2.3" height="2.55"/>
      <polygon class="cls-4" points="6.9 62.55 6.9 63.83 4.6 63.83 6.9 62.55"/>
      <polygon class="cls-4" points="6.9 61.27 6.9 62.55 4.6 63.83 4.6 61.27 6.9 61.27"/>
      <rect class="cls-4" x="4.6" y="58.72" width="2.3" height="2.55"/>
      <rect class="cls-4" x="4.6" y="56.17" width="2.3" height="2.55"/>
      <rect class="cls-4" x="4.6" y="53.61" width="2.3" height="2.55"/>
      <rect class="cls-7" x="4.6" y="51.06" width="2.3" height="2.55"/>
      <rect class="cls-1" x="4.6" y="48.51" width="2.3" height="2.55"/>
      <rect class="cls-4" x="4.6" y="45.95" width="2.3" height="2.55"/>
      <rect class="cls-7" x="4.6" y="43.4" width="2.3" height="2.55"/>
      <rect class="cls-1" x="4.6" y="40.85" width="2.3" height="2.55"/>
      <rect class="cls-7" x="4.6" y="38.29" width="2.3" height="2.55"/>
      <rect class="cls-6" x="4.6" y="35.74" width="2.3" height="2.55"/>
      <rect class="cls-7" x="4.6" y="33.19" width="2.3" height="2.55"/>
      <rect class="cls-4" x="4.6" y="30.63" width="2.3" height="2.55"/>
      <rect class="cls-6" x="4.6" y="28.08" width="2.3" height="2.55"/>
      <rect class="cls-2" x="4.6" y="25.53" width="2.3" height="2.55"/>
      <rect class="cls-6" x="4.6" y="22.97" width="2.3" height="2.55"/>
      <rect class="cls-2" x="4.6" y="20.42" width="2.3" height="2.55"/>
      <rect class="cls-7" x="4.6" y="17.87" width="2.3" height="2.55"/>
      <rect class="cls-2" x="4.6" y="15.32" width="2.3" height="2.55"/>
      <rect class="cls-6" x="4.6" y="12.77" width="2.3" height="2.55"/>
      <rect class="cls-2" x="4.6" y="10.21" width="2.3" height="2.55"/>
      <rect class="cls-6" x="4.6" y="7.66" width="2.3" height="2.55"/>
      <rect class="cls-4" x="4.6" y="5.11" width="2.3" height="2.55"/>
      <rect class="cls-2" x="4.6" y="2.55" width="2.3" height="2.55"/>
      <polygon class="cls-1" points="4.6 66.38 4.6 68.93 2.85 68.93 2.3 68.44 2.3 66.38 4.6 66.38"/>
      <polygon class="cls-1" points="4.6 63.83 4.6 66.38 2.3 66.38 2.3 65.1 4.6 63.83"/>
      <rect class="cls-1" x="2.3" y="61.27" width="2.3" height="2.55"/>
      <rect class="cls-4" x="2.3" y="58.72" width="2.3" height="2.55"/>
      <rect class="cls-7" x="2.3" y="56.17" width="2.3" height="2.55"/>
      <rect class="cls-5" x="2.3" y="53.61" width="2.3" height="2.55"/>
      <rect class="cls-4" x="2.3" y="51.06" width="2.3" height="2.55"/>
      <rect class="cls-4" x="2.3" y="48.51" width="2.3" height="2.55"/>
      <rect class="cls-2" x="2.3" y="45.95" width="2.3" height="2.55"/>
      <rect class="cls-2" x="2.3" y="43.4" width="2.3" height="2.55"/>
      <rect class="cls-6" x="2.3" y="40.85" width="2.3" height="2.55"/>
      <rect class="cls-6" x="2.3" y="38.29" width="2.3" height="2.55"/>
      <rect class="cls-6" x="2.3" y="35.74" width="2.3" height="2.55"/>
      <rect class="cls-2" x="2.3" y="33.19" width="2.3" height="2.55"/>
      <rect class="cls-2" x="2.3" y="30.63" width="2.3" height="2.55"/>
      <rect class="cls-3" x="2.3" y="28.08" width="2.3" height="2.55"/>
      <rect class="cls-6" x="2.3" y="22.97" width="2.3" height="2.55"/>
      <rect class="cls-4" x="2.3" y="20.42" width="2.3" height="2.55"/>
      <rect class="cls-6" x="2.3" y="17.87" width="2.3" height="2.55"/>
      <rect class="cls-6" x="2.3" y="15.32" width="2.3" height="2.55"/>
      <rect class="cls-2" x="2.3" y="12.77" width="2.3" height="2.55"/>
      <rect class="cls-2" x="2.3" y="7.66" width="2.3" height="2.55"/>
      <rect class="cls-3" x="2.3" y="5.11" width="2.3" height="2.55"/>
      <polygon class="cls-1" points="4.6 63.83 2.3 65.1 2.3 63.83 4.6 63.83"/>
      <polygon class="cls-1" points="2.85 68.93 2.3 68.93 2.3 68.44 2.85 68.93"/>
      <polygon class="cls-8" points="2.3 66.38 2.3 68.44 0 66.38 2.3 66.38"/>
      <polygon class="cls-1" points="2.3 65.1 2.3 66.38 0 66.38 2.3 65.1"/>
      <polygon class="cls-1" points="2.3 63.83 2.3 65.1 0 66.38 0 63.83 2.3 63.83"/>
      <rect class="cls-4" y="61.27" width="2.3" height="2.55"/>
      <rect class="cls-4" y="58.72" width="2.3" height="2.55"/>
      <rect class="cls-1" y="51.06" width="2.3" height="2.55"/>
      <rect class="cls-1" y="48.51" width="2.3" height="2.55"/>
      <rect class="cls-1" y="45.95" width="2.3" height="2.55"/>
      <rect class="cls-1" y="43.4" width="2.3" height="2.55"/>
      <rect class="cls-3" y="20.42" width="2.3" height="2.55"/>
      <rect class="cls-2" y="17.87" width="2.3" height="2.55"/>
      <rect class="cls-3" y="15.32" width="2.3" height="2.55"/>
      <rect class="cls-2" y="12.77" width="2.3" height="2.55"/>
    </g>
  </g>
</svg>